# xmcd
#
# Track frame offsets: 
#        150
#        17050
#        32491
#        47776
#        60036
#        71774
#        89329
#        104311
#        122375
#        136477
#        155500
#        168920
#        184377
#        202792
#        214597
#        230081
#
# Disc length: 3291 seconds
#
# Revision: 0
# Processed by: cddbd v1.5.2PL0 Copyright (c) Steve Scherf et al.
# Submitted via: ExactAudioCopy v0.99pb4
#
DISCID=d10cd910
DTITLE=Tim O'Brien - Chameleon
DYEAR=2008
DGENRE=Bluegrass
TTITLE0=Where's Love Come From
TTITLE1=Hoss Race
TTITLE2=The Garden
TTITLE3=Red Dog in the Morning
TTITLE4=Phantom Phone Call
TTITLE5=Megna's
TTITLE6=Chameleon
TTITLE7=Father Forgive Me
TTITLE8=The Only Way to Never Hurt
TTITLE9=Get out There and Dance
TTITLE10=This World Was Made for Everyone
TTITLE11=When in Rome
TTITLE12=World of Trouble
TTITLE13=Safe in Your Arms
TTITLE14=Crooked Road
TTITLE15=Nothing to Say (That Hasn't Been Said)
EXTD=
EXTT0=
EXTT1=
EXTT2=
EXTT3=
EXTT4=
EXTT5=
EXTT6=
EXTT7=
EXTT8=
EXTT9=
EXTT10=
EXTT11=
EXTT12=
EXTT13=
EXTT14=
EXTT15=
PLAYORDER=
